<svg version="1.1" xmlns="http://www.w3.org/2000/svg" xmlns:xlink="http://www.w3.org/1999/xlink" width="530.04129" height="409.9099" viewBox="0,0,530.04129,409.9099"><g transform="translate(29.53078,25.3528)"><g stroke="none" stroke-miterlimit="10"><path d="M260.27027,372.54508v-384.38438h240.24024v384.38439z" fill="#ff4d4d" stroke-width="0"/><text transform="translate(308.78662,24.32696) scale(0.34749,0.34749)" font-size="40" xml:space="preserve" fill="#ffffff" stroke-width="1" font-family="Sans Serif" font-weight="400" text-anchor="start"><tspan x="0" dy="0">press space to restart</tspan></text><text transform="translate(304.2484,126.14444) scale(0.34749,0.34749)" font-size="40" xml:space="preserve" fill="#ffffff" stroke-width="1" font-family="Sans Serif" font-weight="400" text-anchor="start"><tspan x="0" dy="0">ethan tran's super cool</tspan><tspan x="0" dy="48px">psychology memorizer</tspan><tspan x="0" dy="48px"> </tspan><tspan x="0" dy="48px">ai powered flashcards</tspan><tspan x="0" dy="48px"> </tspan><tspan x="0" dy="48px"> </tspan><tspan x="0" dy="48px">i will make a good ui</tspan><tspan x="0" dy="48px">for this later sometime</tspan></text><path d="M344.11804,277.72448c0,-1.38071 1.11929,-2.5 2.5,-2.5c1.38071,0 2.5,1.11929 2.5,2.5c0,1.38071 -1.11929,2.5 -2.5,2.5c-1.38071,0 -2.5,-1.11929 -2.5,-2.5z" fill="#ffffff" stroke-width="0.5"/><path d="M391.96045,273.97213c0,-1.38071 1.11929,-2.5 2.5,-2.5c1.38071,0 2.5,1.11929 2.5,2.5c0,1.38071 -1.11929,2.5 -2.5,2.5c-1.38071,0 -2.5,-1.11929 -2.5,-2.5z" fill="#ffffff" stroke-width="0.5"/><path d="M411.346,300.55281c2.5,0 2.5,2.5 2.5,2.5v0.93809c0,0.31111 0.0379,6.86239 -0.10727,7.29106c-1.83118,5.40736 -7.45134,6.87238 -11.07636,10.54736c-3.92436,2.90897 -7.7231,4.41785 -12.04067,6.57388c-2.34967,1.17334 -7.22217,3.77209 -9.75978,4.309c-4.28876,0.90742 -4.37253,-0.35308 -8.28292,-0.91171c-3.53469,-0.50496 -7.48934,-0.27605 -10.65121,-2.47589c-4.05506,-2.82127 -7.06508,-6.97754 -10.46118,-10.38437c-0.75463,-0.75701 -1.84727,-1.0903 -2.68119,-1.75895c-4.11297,-3.29783 -7.71629,-7.69908 -11.43983,-11.42262c0,0 -1.76777,-1.76777 0,-3.53553c1.76777,-1.76777 3.53553,0 3.53553,0c3.59955,3.59955 7.09228,7.91324 11.07424,11.09145c0.92698,0.73987 2.10742,1.15598 2.94733,1.99339c3.22954,3.21998 5.9887,7.04678 9.74309,9.81991c2.39516,1.76914 5.85464,1.32587 8.54414,1.71008c2.47744,0.35392 4.18308,1.56076 6.72646,0.96446c1.87226,-0.43895 6.89968,-3.08756 8.47153,-3.87249c3.89896,-1.947 7.49108,-3.24466 11.00381,-5.88253c0.99594,-0.9838 1.8497,-2.13625 2.98781,-2.95141c2.21025,-1.58308 5.58007,-2.19471 6.57374,-5.26296c0.60009,-1.85296 -0.10727,-3.89443 -0.10727,-5.84214v-0.93809c0,0 0,-2.5 2.5,-2.5z" fill="#ffffff" stroke-width="0.5"/><path d="M-29.53078,88.76131v-114.11411h300.3003v114.11412z" fill="#ff4d4d" stroke-width="0"/><path d="M-29.53078,384.5571v-114.11411h300.3003v114.11411z" fill="#ff4d4d" stroke-width="0"/><path d="M10.36081,46.98716c0.08094,1.71849 0.15157,3.39476 0.15157,4.98736c0,2.002 0.0754,4.00543 0,6.00601c-0.0258,0.68456 -0.44192,1.40914 -0.1903,2.0463c1.27764,3.23526 2.38945,0.49358 4.81434,1.72364c0.77665,0.39397 5.37869,6.73169 5.38648,6.74208c0,0 1.5,2 -0.5,3.5c-2,1.5 -3.5,-0.5 -3.5,-0.5c-1,-1.33334 -2.05588,-2.62653 -3,-4c-0.26705,-0.3885 -0.17693,-1.11606 -0.62254,-1.26994c-0.89564,-0.3093 -2.02736,0.55812 -2.84168,0.07363c-1.76472,-1.04994 -3.37096,-2.55424 -4.35599,-4.35599c-1.04848,-1.91779 -0.1903,-7.69359 -0.1903,-9.96572c0,-8.1119 -1.31386,-17.33791 1.6918,-24.98073c0.41589,-1.05752 3.42604,-6.8036 3.99838,-7.17592c1.21082,-0.78768 2.87473,-0.29979 4.31733,-0.37337c1.95822,-0.09988 7.21837,0.14689 8.46422,0.1903c1.001,1.001 1.74704,2.34989 3.003,3.003c1.13929,0.59244 2.97916,-0.43372 3.81406,0.54194c0.54991,0.64261 1.12387,7.62712 0.54193,8.73048c-2.49182,4.72459 -4.67358,4.14557 -8.26296,7.00744c-3.49741,2.78856 -5.33887,6.7537 -9.98887,7.98248c-0.88171,0.233 -1.80947,0.13574 -2.73046,0.08703zM10.15273,41.96378c4.74393,-0.1857 6.13274,-4.00413 9.81892,-6.96241c1.21602,-0.9759 2.71934,-1.54203 3.97197,-2.47047c1.00737,-0.74666 2.16294,-1.44258 2.78008,-2.5341c0.33716,-0.59633 -0.30192,-1.37041 -0.1903,-2.0463c0.07799,-0.47226 1.1646,-1.02989 0.73223,-1.23524c-0.67986,-0.3229 -1.51177,0.86417 -2.19195,0.54194c-1.27933,-0.60608 -2.002,-2.00201 -3.003,-3.00301c-1.58797,0.08518 -4.86486,0.32447 -6.5508,0.1903c-0.57467,-0.04574 -1.21964,-0.70855 -1.68867,-0.37337c-0.56328,0.40253 -0.31432,1.355 -0.57976,1.99441c-0.40644,0.97907 -1.02728,1.8602 -1.42788,2.84167c-1.58479,3.8828 -1.78846,8.4779 -1.67085,13.05657z" fill="#ffffff" stroke-width="0.5"/><path d="M64.68598,25.68206c-2.23607,1.11803 -3.3541,-1.11803 -3.3541,-1.11803l-0.57976,-1.99441c-1.34378,0.29712 -2.77509,0.00239 -4.1173,0.3065c-2.0673,0.4684 -3.37836,1.48204 -4.20708,2.7992c0.12669,0.43133 0.12669,0.77368 0.12669,0.77368c0,0.27253 0.07208,7.89213 -0.1903,8.46422c-0.30439,0.66371 -0.91045,1.11266 -1.52051,1.56153c-0.20721,0.53289 -0.61955,1.12442 -1.4401,1.36844c-0.01453,0.02405 -0.02867,0.04839 -0.04239,0.07303c-0.33337,0.59846 0.1718,1.36151 0.1903,2.0463c0.09526,3.52712 -0.7461,8.11998 -0.03228,11.61156c0.63403,3.1013 2.39295,5.90291 3.00301,9.00901c0.02162,0.11008 0.05007,6.05781 0.03228,6.40646c-0.07358,1.44261 0.46319,3.13976 -0.37338,4.31734c-1.0145,1.42803 -2.90018,2.04651 -4.55524,2.62029c-0.94578,0.32788 -2.03189,-0.24278 -3.00301,0c-1.08574,0.27143 -2.00201,1.001 -3.00301,1.5015l-3.57738,0.06688c0,0 -2.5,0 -2.5,-2.5c0,-2.5 2.5,-2.5 2.5,-2.5l2.42863,0.06687c1.84575,-0.92288 3.94996,-1.32483 6.006,-1.5015c0.49829,-0.04282 1.21997,0.061 1.45076,-0.3827c0.26602,-0.51144 -0.32763,-1.11401 -0.37337,-1.68868c-0.07941,-0.99784 -0.00576,-2.00201 0,-3.003c0.02478,-4.30333 -2.15032,-7.43447 -2.97073,-11.61156c-0.72268,-3.67951 -0.11086,-8.71251 -0.03228,-12.41247c0.02806,-1.32113 -0.36057,-2.75858 0.1903,-3.95971c0.26643,-0.58093 0.76395,-0.99732 1.293,-1.39315c-0.09751,-2.42622 -0.53119,-4.90144 0.08508,-7.23353c1.12749,-4.26666 5.09959,-8.23876 9.36625,-9.36624c1.50585,-0.39793 6.64721,0.1986 7.89471,0.30649l2.42324,4.0116c0,0 1.11803,2.23607 -1.11804,3.3541z" fill="#ffffff" stroke-width="0.5"/><path d="M82.08897,69.99254c0,-1.3785 0.7601,-1.99689 1.44206,-2.2743c-0.12699,-2.94452 -0.37443,-6.23025 0.12632,-8.81059c0.21321,-1.09866 1.27472,-1.90707 1.5015,-3.00301c0.65449,-3.16299 -0.06688,-8.22881 -0.06688,-11.43763c0,0 0,-0.739 0.40178,-1.41342c-0.49111,-0.57429 -0.96393,-1.15654 -1.43139,-1.62931c-0.78687,-0.79583 -0.83312,-2.10535 -1.5015,-3.003c-3.16227,-4.247 -8.02367,-7.97802 -11.75168,-11.70603c0,0 -1.76776,-1.76776 0,-3.53553c1.76776,-1.76777 3.53553,0 3.53553,0c3.93443,3.93443 8.90651,7.85927 12.27235,12.318c0.67428,0.89323 1.07237,1.96939 1.5015,3.003c0.2656,0.63973 0.1074,2.50861 0.57444,1.99706c0.67967,-0.74446 0.07948,-2.032 0.34522,-3.00438c0.7854,-2.87385 2.63861,-6.62953 3.94621,-9.26986c0.58783,-1.18696 0.90908,-2.57628 1.83248,-3.52589c0.87628,-0.90116 2.21686,-1.18552 3.32528,-1.77828l2.69701,-2.74266c0,0 1.76777,-1.76777 3.53554,0c1.76776,1.76777 0,3.53553 0,3.53553l-3.309,3.26334c-0.89357,0.40825 -1.96955,0.54697 -2.68073,1.22473c-0.56713,0.54049 -0.56358,1.46297 -0.88782,2.17615c-1.36674,3.00613 -2.27631,6.22816 -3.87636,9.11687c-1.06131,1.91608 -1.64996,4.85932 -3.52092,5.7398c0.07114,3.6435 0.58003,8.44574 -0.07483,11.82026c-0.21321,1.09866 -1.27473,1.90707 -1.5015,3.003c-0.58867,2.84488 0.06687,6.97532 0.06687,9.93613l-4.0015,2.5c0,0 -2.5,0 -2.5,-2.5z" fill="#ffffff" stroke-width="0.5"/><path d="M121.35957,71.11057c-1.11804,2.23607 -3.3541,1.11804 -3.3541,1.11804l-3.329,-1.6968c-2.44885,-2.34649 -5.58691,-3.92398 -7.92636,-6.37955c-0.97854,-1.02711 -1.29572,-2.52624 -2.02179,-3.74497c-0.95319,-1.59994 -2.36635,-2.95865 -3.01255,-4.70531c-0.4313,-1.16578 -0.09839,-2.4845 -0.10727,-3.72747c-0.03189,-4.46478 0.72953,-9.91402 3.61731,-13.65339c0.80923,-1.04787 2.47656,-1.09591 3.41262,-2.03222c1.19413,-1.19444 1.61449,-3.02833 2.82457,-4.2066c0.85953,-0.83693 2.23431,-0.93785 3.19573,-1.65541c5.84419,-4.36183 11.03575,-10.69802 14.24072,-17.10794c0,0 1.11803,-2.23607 3.35411,-1.11803c2.23607,1.11803 1.11803,3.3541 1.11803,3.3541c-3.56635,7.13269 -9.31654,14.05079 -15.78931,18.92809c-0.82971,0.62519 -2.07092,0.61775 -2.81027,1.34759c-1.17026,1.15519 -1.55952,2.95131 -2.72244,4.1139c-0.819,0.81877 -2.32865,0.75521 -3.05238,1.6593c-2.12459,2.65407 -2.3581,7.26401 -2.3887,10.37062c-0.00749,0.76032 -0.39681,1.57548 -0.10727,2.27855c0.56042,1.36082 1.77222,2.35627 2.53445,3.6152c0.56668,0.93594 0.67651,2.16604 1.44021,2.94954c2.10656,2.16116 4.9265,3.52692 7.08866,5.63246l2.677,1.30621c0,0 2.23607,1.11803 1.11804,3.3541z" fill="#ffffff" stroke-width="0.5"/><path d="M192.96334,30.68723c1.76776,1.76776 0,3.53554 0,3.53554l-2.22468,2.00504c-0.50586,0.22779 -1.0217,0.4297 -1.54522,0.61085c-0.00104,3.04329 -0.00236,6.08657 -0.00236,9.12985v3.003c0,0 0,2.5 -2.5,2.5c-2.5,0 -2.5,-2.5 -2.5,-2.5c0,-3.08904 0,-7.01805 0,-10.89854c-0.79246,0.14656 -1.5862,0.28271 -2.3743,0.42378c-2.45445,0.43935 -7.45395,2.07584 -9.83526,2.44553c-5.01694,0.77887 -9.56928,1.2341 -14.5299,2.89344c0,0 -0.465,0.155 -1.05184,0.12184c-0.10059,3.71614 -0.24173,7.41582 -0.24173,11.01997v3.00301c0,0 0,2.5 -2.5,2.5c-2.5,0 -2.5,-2.5 -2.5,-2.5v-3.00301c0,-9.07996 0.98401,-18.85633 -0.26551,-27.84165c-0.23118,-1.66243 -0.96693,-3.22628 -1.21727,-4.88593c-0.58218,-3.85967 -0.01873,-8.43974 -0.01873,-12.31747c0,0 0,-2.5 2.5,-2.5c2.5,0 2.5,2.5 2.5,2.5c0,3.64171 -0.59299,8.07902 -0.01873,11.70656c0.25876,1.63455 0.9849,3.17571 1.20809,4.8155c0.55036,4.04352 0.67859,8.22697 0.64884,12.43539c5.03038,-1.59072 9.74769,-2.12307 14.87586,-2.91018c3.25036,-0.49889 6.33004,-1.82899 9.56759,-2.40519c1.07605,-0.19151 2.17036,-0.35444 3.25288,-0.55929c0,-1.63812 0,-3.1877 0,-4.56927c0,-7.72081 0.39744,-15.07086 -4.08463,-21.63127c0,0 -1.38675,-2.08013 0.69338,-3.46688c2.08013,-1.38675 3.46687,0.69338 3.46687,0.69338c1.0033,1.53565 2.32015,2.90722 3.00991,4.60695c1.75116,4.31529 1.90955,10.21445 1.91448,14.79782c0.0027,2.51339 0.00359,5.02679 0.00358,7.54019l0.23316,-0.29895c0,0 1.76776,-1.76777 3.53553,0z" fill="#ffffff" stroke-width="0.5"/><path d="M11.49342,342.46435l0.48506,-0.71362c0.11788,-0.98004 0.27837,-1.95527 0.47149,-2.92087c-0.00271,-0.55228 -0.03271,-5.15616 0,-5.45703c0.15912,-1.46343 1.06542,-3.82405 0.70224,-5.49235c-0.30589,-1.40514 -1.08431,-2.68223 -1.36426,-4.09277c-0.3736,-1.88244 0.04667,-3.914 -0.57909,-5.72827c-0.68364,-1.98209 -1.85893,-3.83351 -2.15575,-5.90907c-1.30042,-9.09336 0.3325,-18.35238 -0.69591,-27.39808c-0.1843,-1.62106 -0.48579,-3.23619 -0.62273,-4.86049c-0.54608,0.04184 -1.11818,0.25051 -1.66434,0.29286c0,0 -2.5,0 -2.5,-2.5c0,-2.5 2.5,-2.5 2.5,-2.5c1.45578,0.06343 2.99391,-0.29652 4.36735,0.1903c0.40136,0.14226 0.70569,0.43688 0.98583,0.77257c0.54905,0.28928 0.85491,0.75769 1.0253,1.18979c0.09721,0.08188 0.2,0.15559 0.31029,0.21822c0.77639,0.44083 1.82661,0.18241 2.60632,0.61734c2.62264,1.46295 5.12808,3.17882 7.38607,5.15869c1.44366,1.26584 1.95717,3.5502 3.65017,4.45589c0.87649,0.46889 2.1075,0.1489 2.87963,0.77492c1.30438,1.05755 2.4542,2.44515 3.03523,4.02065c1.23297,3.34329 -0.21266,4.3594 -0.57257,7.23518c-0.27283,2.17994 -0.1208,4.44631 -0.76704,6.54606c-0.43189,1.40331 -0.91106,2.81972 -1.67351,4.0745c-0.47249,0.77758 -1.57196,1.07797 -1.95799,1.9019c-0.6911,1.47506 -0.48015,3.26631 -1.15751,4.74773c-0.9485,2.07442 -2.73439,3.67924 -3.76479,5.71422c-0.58826,0.51377 -1.47843,0.81467 -1.76479,1.54132c-0.70373,1.78572 0.56655,3.8893 0.12342,5.75683c-0.23476,0.98939 -1.14071,1.73653 -1.36426,2.72851c-0.22593,1.00255 0.16338,2.06067 0.05471,3.0826c-0.40544,3.81268 -0.72857,3.81968 -2.29815,7.01084l-0.3528,0.53728c-0.04469,0.58447 -0.06827,1.16992 -0.0654,1.75533l0.55384,1.25582c0,0 0.79057,2.37171 -1.58114,3.16228c-2.37171,0.79057 -3.16228,-1.58114 -3.16228,-1.58114l-0.66698,-2.33483c-1.6567,-1.37662 -0.40569,-3.25313 -0.40569,-3.25313zM18.36673,319.87909c0.89408,-1.81283 2.52749,-3.20613 3.35965,-5.0482c0.70172,-1.55331 0.53497,-3.41485 1.26785,-4.9537c0.84253,-1.76907 2.64551,-3.0553 3.18978,-4.93765c0.53362,-1.84549 0.35922,-3.82595 0.59722,-5.73225c0.18662,-1.49474 1.2004,-3.42595 0.79169,-5.04313c-0.59282,-2.34567 -1.9413,-1.00798 -3.63494,-2.02571c-1.94869,-1.17099 -2.82258,-3.59893 -4.53537,-5.09391c-0.92035,-0.80332 -2.16357,-1.1485 -3.1635,-1.8503c-1.09212,-0.7665 -1.92544,-1.89498 -3.09299,-2.54081c-0.01074,-0.00594 -0.02153,-0.01178 -0.03236,-0.01751c0.08204,0.54067 0.16017,1.08159 0.21911,1.62364c0.97648,8.98082 -0.4548,18.14642 0.66834,27.17218c0.2209,1.77522 1.38581,3.30311 1.93702,5.00498c0.53443,1.65008 0.4439,3.43109 0.59506,5.1677c0.52659,-0.62631 1.27794,-1.11655 1.83343,-1.72536z" fill="#ffffff" stroke-width="0.5"/><path d="M57.50456,289.03449c0.92848,2.32119 -1.39272,3.24967 -1.39272,3.24967l-3.86635,1.49796c-3.26077,0.04595 -6.32662,0.18217 -9.40821,0.46629l-0.89297,0.89297c-2.64445,2.57686 -3.32228,5.43509 -4.13539,8.65507c1.17281,-0.14636 2.08901,0.76984 2.08901,0.76984c4.22174,4.33248 10.8964,5.16589 16.44571,7.05673l3.06825,2.26083c0,0 2,1.5 0.5,3.5c-1.5,2 -3.5,0.5 -3.5,0.5l-2.38878,-1.83194c-6.26878,-2.03255 -12.64602,-3.14319 -17.50485,-7.79902c-1.01246,3.07329 -2.17899,6.18545 -2.73587,9.35824c-0.18981,1.08146 0.12604,2.20165 0.01433,3.29395c-0.17216,1.68349 -0.75674,3.29883 -1.13501,4.94989c6.24104,4.28004 13.18792,5.56022 20.6525,6.63475l3.23342,-0.00629c0,0 2.5,0 2.5,2.5c0,2.5 -2.5,2.5 -2.5,2.5l-3.58786,-0.00629c-7.59288,-1.07725 -14.57354,-2.4414 -21.05381,-6.20643c-0.39377,3.28437 -0.80245,6.57486 -1.58235,9.77609c0,0 -0.60634,2.42536 -3.0317,1.81902c-2.42536,-0.60634 -1.81902,-3.0317 -1.81902,-3.0317c1.11926,-4.33899 1.38085,-8.95533 1.99805,-13.39795c0.28316,-2.03816 1.15021,-3.97577 1.35012,-6.02377c0.11423,-1.17022 -0.18828,-2.36913 0.01433,-3.52733c0.71135,-4.0662 2.31185,-8.02791 3.48778,-11.94551c1.10526,-3.68215 1.72587,-6.82547 3.38947,-9.76988c-0.46587,0.04512 -2.41562,0.10086 -2.77696,-2.06719c-0.411,-2.46598 2.05499,-2.87698 2.05499,-2.87698c5.57489,-0.9287 10.65721,-1.46619 16.30931,-1.35316l2.95493,-1.23056c0,0 2.32119,-0.92848 3.24967,1.39272z" fill="#ffffff" stroke-width="0.5"/><path d="M98.59009,312.14999c0.32321,2.47902 -2.15581,2.80223 -2.15581,2.80223l-0.27389,0.03571c-6.82924,0.88332 -13.63663,0.6674 -20.51317,0.6674c0,0 -1.10538,0 -1.8461,-0.73502c-0.3583,0.75349 -0.99606,1.40473 -1.1778,2.22004c-0.23474,1.05312 0.23462,2.17645 0.0346,3.23671c-0.46477,2.46359 -2.1303,4.56934 -2.76311,6.99521c-0.51512,1.97469 -0.02186,5.24497 0.04815,7.3057c0.01672,0.49218 -0.18764,1.11207 0.15096,1.46965c0.46272,0.48866 1.26429,0.46167 1.89644,0.69251c0,0 2.23607,1.11803 1.11803,3.3541c-1.11803,2.23607 -3.3541,1.11803 -3.3541,1.11803c-1.18686,-0.67867 -2.71137,-0.96452 -3.56058,-2.03601c-1.89432,-2.39014 -1.8691,-10.14842 -1.16515,-13.05275c0.56318,-2.32355 2.2835,-4.29202 2.69392,-6.64736c0.20512,-1.17717 -0.2239,-2.41795 0.0346,-3.58457c0.21998,-0.99278 1.117,-1.74217 1.36426,-2.72851c0.21292,-0.84938 -0.21821,-1.77355 -0.02177,-2.6269c0.50998,-2.21536 2.21559,-4.03124 2.75028,-6.24077c0.21392,-0.88399 -0.22059,-1.84616 0,-2.72851c0.24662,-0.9865 1.11422,-1.74288 1.36426,-2.72851c0.68312,-2.69284 -1.69371,-3.96626 1.39004,-6.69196c1.82152,-1.61003 5.55602,-1.36337 7.86437,-1.37281c2.60055,0.06947 5.16893,1.10802 7.42539,2.40265l-0.60411,-0.35627c0,0 2.5,0 2.5,2.5c0,2.5 -2.5,2.5 -2.5,2.5l-1.96837,-0.35627c-1.44413,-0.9212 -3.14164,-1.76543 -4.85291,-1.69012c-1.4713,-0.00721 -3.1866,-0.81998 -4.41394,-0.00855c-0.34115,0.22554 0.07143,0.8157 0.07393,1.22465c0.0061,0.99926 0.19117,2.02724 -0.04815,2.99744c-0.24353,0.98727 -1.11763,1.74202 -1.36426,2.72851c-0.22059,0.88235 0.22621,1.84759 0,2.72851c-0.50935,1.98355 -2.0104,3.62913 -2.59014,5.58113c0.70087,-0.46997 1.52127,-0.46997 1.52127,-0.46997c6.65515,0 13.2606,0.24315 19.86675,-0.62544l0.27389,-0.03571c0,0 2.47902,-0.32321 2.80223,2.15581z" fill="#ffffff" stroke-width="0.5"/><path d="M100.01415,339.51211c-0.29182,-0.58364 -0.35514,-1.09111 -0.28935,-1.52242c-2.5843,-0.58226 -5.1635,-1.32862 -7.63072,-1.94516c0,0 -2.42536,-0.60634 -1.81902,-3.0317c0.60634,-2.42536 3.0317,-1.81902 3.0317,-1.81902c3.45763,0.86478 7.13813,2.00127 10.72834,2.5182c1.26318,-2.05229 2.95031,-3.7927 3.93654,-5.99464c0.66065,-1.47503 0.92639,-3.10092 1.51867,-4.60471c1.4821,-3.76301 3.74084,-7.11212 4.63456,-11.13677c0.88915,-4.00406 0.65048,-8.64565 0.63311,-12.74825c-2.36889,-1.61283 -4.87946,-2.92864 -7.54103,-3.40259c0,0 -2.45145,-0.49029 -1.96116,-2.94174c0.49029,-2.45145 2.94174,-1.96116 2.94174,-1.96116c6.09142,1.31591 11.0331,5.32254 15.86391,9.21328l2.49916,1.23403c0,0 2.23607,1.11803 1.11803,3.3541c-1.11803,2.23607 -3.3541,1.11803 -3.3541,1.11803l-2.95786,-1.49449c-0.51869,-0.41244 -1.04548,-0.83958 -1.5805,-1.2732c0.01364,3.33858 -0.0677,6.78641 -0.76123,9.89659c-0.97639,4.37866 -3.30366,7.97074 -4.91524,12.05559c-0.63018,1.5973 -0.9255,3.32237 -1.6436,4.88212c-0.69211,1.50331 -1.6569,2.90789 -2.65624,4.30061c1.56901,0.65421 3.0481,1.75877 4.71866,1.68525h0.68213c0,0 2.5,0 2.5,2.5c0,2.5 -2.5,2.5 -2.5,2.5h-0.68213c-1.13195,-0.03024 -2.31549,0.2485 -3.39585,-0.09071c-1.26493,-0.39716 -2.14337,-1.65675 -3.41064,-2.04638c-0.29352,-0.09025 -0.59574,-0.10836 -0.90245,-0.09301c-0.02457,0.04447 -0.04893,0.089 -0.07309,0.13362l-3.37825,1.83256c0,0 -2.23607,1.11803 -3.3541,-1.11803z" fill="#ffffff" stroke-width="0.5"/><path d="M165.49631,300.47195c2.45145,0.49029 1.96116,2.94174 1.96116,2.94174l-0.92939,4.1c-0.88485,0.85949 -2.17098,1.44364 -2.65456,2.57847c-0.50696,1.18969 0.10239,2.60063 -0.09687,3.87839c-0.51155,3.28033 -1.24723,6.52311 -1.75777,9.8036c-0.78263,5.02873 -1.79089,9.30302 -2.00032,14.14637c0.80226,3.95936 1.32653,8.00142 1.92996,11.92283l0.70069,2.92043c0.05345,0.2034 0.08191,0.41694 0.08191,0.63712c0,1.38071 -1.11929,2.5 -2.5,2.5c-0.99801,0 -1.85943,-0.58479 -2.26029,-1.43041l-2.02216,-4.04433l0.0595,-0.02975c-0.08078,-0.13501 -0.15777,-0.27269 -0.23058,-0.41328c-0.83898,-1.61995 -0.33906,-3.63286 -0.49944,-5.45012c-0.20324,-2.30287 -0.43401,-4.73675 -0.47938,-7.14336c-1.14099,-4.96265 -2.87548,-9.7135 -6.06961,-13.80492c-0.73753,-0.94472 -1.21296,-2.13406 -2.14881,-2.8828c-0.52236,-0.41793 -1.33923,-0.17173 -1.96491,-0.40846c-1.05869,-0.40057 -1.93313,-1.66344 -3.05163,-1.48961c-0.65371,0.1016 0.02686,1.33486 -0.11306,1.98145c-0.32271,1.49134 -0.99475,2.8973 -1.26752,4.39858c-0.25599,1.40891 0.01744,2.89072 -0.31015,4.28472c-0.74593,3.17419 -2.90049,5.87206 -3.85866,8.98876c-0.73294,2.38408 -0.72298,4.94392 -1.32518,7.36433c0,0 -0.60634,2.42536 -3.0317,1.81902c-2.42536,-0.60634 -1.81902,-3.0317 -1.81902,-3.0317c0.6313,-2.51198 0.6411,-5.1671 1.40333,-7.64249c0.91657,-2.9766 3.05889,-5.52214 3.74534,-8.56007c0.30095,-1.33186 0.01973,-2.74527 0.27138,-4.08732c0.252,-1.3439 2.36872,-9.30542 4.07645,-9.99105c2.0707,-0.83136 4.41662,0.66279 6.596,1.14156c1.15704,0.25418 2.44417,0.34556 3.39427,1.05313c1.37507,1.02407 2.22509,2.60943 3.30821,3.93848c1.50815,1.85057 2.72977,3.83869 3.73521,5.92431c0.31581,-1.37558 0.59312,-2.62815 0.7104,-3.38521c0.50928,-3.28735 1.18988,-6.54592 1.76087,-9.82311c0.29559,-1.69657 -0.1744,-3.55022 0.47726,-5.14429c0.50674,-1.23957 1.86831,-1.91904 2.80247,-2.87856l0.43486,-2.72129c0,0 0.49029,-2.45145 2.94174,-1.96116z" fill="#ffffff" stroke-width="0.5"/><path d="M194.56605,337.02981c0,-3.79927 0.90163,-8.85918 0.04175,-12.50544c-0.30896,-1.31014 -1.16247,-2.45143 -1.4653,-3.763c-0.63792,-2.76279 -0.90919,-5.60959 -1.55765,-8.36669c-4.50254,-0.66089 -9.05746,-1.15314 -13.5426,-2.27103c0,0 -2.42536,-0.60634 -1.81902,-3.0317c0.60634,-2.42536 3.0317,-1.81902 3.0317,-1.81902c9.05197,2.27024 18.22716,2.09066 26.92514,5.56119l-0.24635,-0.17881c0,0 2.5,0 2.5,2.5c0,2.5 -2.5,2.5 -2.5,2.5l-1.6106,-0.17881c-2.44115,-0.97907 -4.93732,-1.65599 -7.466,-2.17724c0.37993,2.09341 0.6661,4.20944 1.14404,6.28162c0.32299,1.4004 1.2186,2.62897 1.52315,4.03349c0.88031,4.05979 0.04175,9.23238 0.04175,13.41543v1.7405c2.59359,-0.06159 5.18247,-0.14773 7.73192,-0.14773h2.04638c0,0 2.5,0 2.5,2.5c0,2.5 -2.5,2.5 -2.5,2.5h-2.04638c-6.22899,0 -12.68128,0.48295 -18.88727,-0.05136c-5.02358,-0.43251 -10.167,-1.64622 -15.07934,-2.73669c0,0 -2.44047,-0.54233 -1.89814,-2.98279c0.54233,-2.44047 2.98279,-1.89814 2.98279,-1.89814c4.69636,1.04478 9.62059,2.22122 14.42423,2.63611c1.88932,0.16318 3.80269,0.22785 5.7258,0.23955z" fill="#ffffff" stroke-width="0.5"/><path d="M251.18269,328.16215c0,-0.09756 0.00381,-0.19132 0.01113,-0.28142c-3.00108,-2.10294 -5.82621,-4.52146 -9.02929,-6.44252c0,0 -2.14373,-1.28624 -0.85749,-3.42997c1.28624,-2.14373 3.42997,-0.85749 3.42997,-0.85749c2.22285,1.33424 5.87868,3.45079 7.80214,4.98527c0.22625,0.18049 0.44952,0.36624 0.6713,0.55474c0.33933,-0.47954 0.6447,-0.97213 0.78218,-1.53256c0.34689,-1.41404 -0.06877,-2.91123 -0.08143,-4.36714c-0.02782,-3.20022 -0.02056,-6.40175 -0.0114,-9.60301c-3.56146,-0.70152 -7.15578,-1.06186 -10.72017,-0.43441c0,0 -2.22639,0.37107 -2.80081,-1.70743c-2.20193,-0.37978 -6.69656,-1.15528 -8.57628,-1.55054c0.2343,8.4726 0.53974,17.04135 -0.18599,25.33462c-0.45538,5.2038 -1.35474,9.7459 -1.35474,15.02081l-2.74622,2.9182c0,0 -2.23607,1.11803 -3.3541,-1.11803c-1.11803,-2.23607 1.11803,-3.3541 1.11803,-3.3541l-0.005,0.43836c0.11148,-4.94222 0.92877,-9.40113 1.36106,-14.34111c0.75112,-8.58339 0.37276,-17.47457 0.13472,-26.23819c-3.92261,-1.1168 -7.80106,-2.21125 -11.96894,-2.18985c0,0 -2.5,0 -2.5,-2.5c0,-2.5 2.5,-2.5 2.5,-2.5c3.95133,0.01718 7.90508,0.71686 11.8485,1.63276c-0.01506,-1.07885 -0.02381,-2.1543 -0.02381,-3.22553c0,0 0,-2.5 2.5,-2.5c2.5,0 2.5,2.5 2.5,2.5c0,1.48427 0.01627,2.97631 0.04259,4.47403c3.50452,0.90498 6.99653,1.82436 10.467,2.42809l1.06148,0.18467c0,0 1.12048,0.19494 1.71847,1.07759c3.02634,-0.19534 6.01623,0.09035 8.9954,0.61116c0.00012,-0.19667 0.00019,-0.39334 0.00019,-0.59001c0,0 0,-2.5 2.5,-2.5c2.5,0 2.5,2.5 2.5,2.5c0,0.54779 0.00045,1.09561 0.00121,1.64345c0.95934,0.22799 1.91906,0.4661 2.88003,0.70609l1.89366,3.10748c0,0 0,2.5 -2.5,2.5c-1.17581,0 -1.79861,-0.55301 -2.12849,-1.13885c-0.04451,-0.01115 -0.08904,-0.0223 -0.13358,-0.03344c0.00637,2.81596 0.00873,5.63196 -0.01283,8.44718c-0.01438,1.87776 0.33844,3.80258 -0.08143,5.63286c-0.27263,1.18841 -0.95963,2.29564 -1.44483,3.4305c0.04784,0.02431 0.09593,0.0482 0.14429,0.07165l2.72851,1.36426c0,0 2.23607,1.11803 1.11803,3.3541c-1.11803,2.23607 -3.3541,1.11803 -3.3541,1.11803l-2.72851,-1.36426c-0.25569,-0.13085 -0.5088,-0.26583 -0.75961,-0.40454l-0.85087,0.66848c0,0 -2.5,0 -2.5,-2.5z" fill="#ffffff" stroke-width="0.5"/><path d="M273.32943,311.47175c1.34978,4.17108 2.07561,8.36059 3.23336,12.63808c0.34674,1.2811 0.87073,2.5082 1.25771,3.77773c0.16129,0.52913 0.26487,2.15579 0.3815,1.61505c1.18688,-5.50277 4.38166,-11.76632 0.87719,-17.4378c-0.68096,-1.10204 -3.81711,-0.77971 -5.74976,-0.59307zM269.66382,307.25853l2.43633,-0.69598c3.47073,0 8.15443,-0.96336 10.7563,2.22625c3.33292,4.0858 3.26668,12.6339 1.85308,17.41794c-1.19975,4.06029 -3.29913,10.3725 -9.14881,7.49267c-1.36278,-0.67091 -1.72353,-2.51906 -2.35963,-3.89843c-2.73964,-5.94087 -2.99021,-12.84407 -5.408,-18.97564c-0.03975,-0.091 -0.07687,-0.1876 -0.11104,-0.29009c-0.26192,-0.78576 -0.17674,-1.39797 0.0543,-1.86538c0.20757,-0.47829 0.6199,-0.93877 1.38893,-1.24638c0.18862,-0.07545 0.36805,-0.12944 0.53853,-0.16496z" fill="#ffffff" stroke-width="0.5"/><path d="M303.47805,306.56256c2.5,0 2.5,2.5 2.5,2.5v1.36426c-0.03647,4.15521 -1.55866,7.11845 -2.45697,11.15631c-0.54349,2.44296 -0.76979,7.39971 -1.67618,9.75673l-0.66901,4.01404c-0.179,1.20503 -1.21791,2.12954 -2.47274,2.12954c-1.33737,0 -2.42947,-1.05012 -2.49672,-2.37077l-0.21279,-3.62545c-0.52848,-4.04695 -0.45086,-8.4334 -1.10964,-12.40208c-0.13122,-0.79052 -0.4787,-1.53406 -0.81268,-2.26248c-0.20869,-0.45517 -0.37526,-1.52323 -0.8059,-1.26773c-0.49855,0.29579 0.10136,1.16637 0.01149,1.73906c-0.24525,1.56284 -0.65029,3.09669 -1.01201,4.63675c-0.98124,4.17779 -2.21334,8.29859 -3.44549,12.40682c0,0 -0.71837,2.39457 -3.11294,1.6762c-2.39457,-0.71837 -1.6762,-3.11294 -1.6762,-3.11294c1.20781,-4.02497 2.40004,-8.06035 3.37579,-12.14979c0.40648,-1.70356 0.4441,-3.52552 1.1573,-5.12512c0.79848,-1.79087 1.38401,-4.44965 3.29921,-4.87015c2.1637,-0.47506 4.39402,1.31558 6.01538,2.82504c1.49627,1.393 1.83799,2.86525 1.90979,4.41143c0.66703,-2.53036 1.21909,-5.06507 1.19031,-7.5654v-1.36426c0,0 0,-2.5 2.5,-2.5z" fill="#ffffff" stroke-width="0.5"/><path d="M308.53157,349.02951c-1.76777,-1.76777 0,-3.53553 0,-3.53553l2.17615,-2.16725c0.6702,-0.3314 1.64917,-0.3397 2.0106,-0.9942c0.23998,-0.43457 -0.58352,-0.81861 -0.75157,-1.28573c-0.27584,-0.76679 -0.23554,-1.63347 -0.56647,-2.37814c-1.54005,-3.46544 -5.03981,-5.6046 -4.96464,-9.77144c0.11758,-6.51712 4.81532,-12.5784 8.76443,-17.34235c0,0 1.60046,-1.92055 3.52101,-0.32009c1.92055,1.60046 0.32009,3.52101 0.32009,3.52101c-3.1897,3.80536 -7.28349,8.83862 -7.60665,14.03555c-0.10932,1.75803 1.4669,2.85189 2.30369,4.11499c1.42324,2.14831 4.82939,8.181 3.69194,11.09909c-0.56105,1.43937 -2.29762,2.06572 -3.44643,3.09857l-1.91662,1.92552c0,0 -1.76777,1.76777 -3.53553,0z" fill="#ffffff" stroke-width="0.5"/><path d="M207.72558,14.30003c0.44973,0.69389 0.44973,1.49057 0.44973,1.49057c0,0.70828 0.02026,10.19686 -0.06783,10.57839c-0.37634,1.62997 -1.75158,2.88805 -2.25528,4.48326c-1.08028,3.42124 0.39616,8.31472 1.98538,11.27156c0.30205,0.56198 1.47922,3.07446 2.6994,2.63754c0.8822,-0.31589 1.11857,-1.50368 1.67937,-2.2544c0.70333,-0.94152 1.44689,-1.8541 2.11302,-2.82231c3.37136,-4.90019 1.87611,-9.52276 0.42471,-14.82271c-0.67838,-2.47718 -0.31334,-4.04008 -1.91086,-6.0769c-0.90215,-1.15024 -2.07819,-2.05641 -3.11728,-3.08462c-0.66679,-0.4668 -1.33357,-0.93359 -2.00036,-1.40039zM205.16037,13.32964c-0.64747,-0.38177 -1.6439,-1.26722 -1.09043,-2.92762c0.79057,-2.37171 3.16228,-1.58114 3.16228,-1.58114l2.94853,1.09449c0.92163,0.65322 1.84326,1.30645 2.76489,1.95967c1.31793,1.32882 2.82512,2.49354 3.95379,3.98645c2.35459,3.11445 1.71574,4.14191 2.68715,7.71711c1.21322,4.46518 2.796,9.56832 1.52571,14.33669c-0.3606,1.35361 -3.908,6.61367 -5.11866,7.86768c-1.36656,1.41549 -2.51399,3.53297 -4.45131,3.87628c-6.89214,1.22133 -10.08675,-8.07079 -10.65384,-12.93128c-0.06642,-0.56927 0.00809,-6.72283 0.10834,-7.06955c0.46124,-1.59513 1.85018,-2.83368 2.24632,-4.44621c0.74926,-3.04993 -0.06783,-6.28099 -0.06783,-9.42161c0,0 0,-2.14369 1.98506,-2.46096z" fill="#ffffff" stroke-width="0.5"/><path d="M248.79103,51.80831c0,2.5 -2.5,2.5 -2.5,2.5l-5.32247,-0.10727c-0.80223,-0.52265 -1.4983,-1.26534 -2.40668,-1.56796c-3.90564,-1.3011 -9.67772,1.32384 -12.16397,-3.60347c-1.00223,-1.98624 1.10154,-7.36046 1.31883,-9.02177c0.91995,-7.03344 -0.01873,-14.80894 -0.01873,-21.91824c0,0 0,-2.5 2.5,-2.5c2.5,0 2.5,2.5 2.5,2.5c0,7.32702 0.90359,15.27206 -0.01873,22.52915c-0.21605,1.69998 -0.77648,3.33922 -1.23395,4.99069c-0.12553,0.45315 -0.61694,0.85574 -0.51256,1.31422c0.0661,0.29035 0.56755,0.19718 0.86371,0.2282c1.45384,0.15228 2.91787,0.18804 4.37366,0.32039c2.17191,0.19745 4.4467,0.71291 6.24734,1.94333l3.87355,-0.10727c0,0 2.5,0 2.5,2.5z" fill="#ffffff" stroke-width="0.5"/><path d="M264.89395,26.72017c-0.09223,0.67955 -0.42977,1.18585 -0.42977,1.18585c-2.36681,3.53609 -3.07954,4.11985 -4.51023,8.09783c-0.68745,1.91142 -0.43469,3.85536 -0.43424,5.84211c0.00036,1.5915 -0.12244,3.18696 -0.01019,4.7745c0.20479,2.89617 0.17964,3.00275 1.4637,4.84632c0.23893,0.34305 0.38066,1.145 0.76916,0.99061c0.42356,-0.16832 -0.08596,-0.97231 0.15629,-1.35839c0.91304,-1.45513 2.08718,-2.73243 3.22056,-4.02334c3.71983,-4.23685 4.5987,-8.46278 6.3811,-13.66222c0.3953,-1.15312 2.39937,-3.82096 1.10153,-5.45405c-0.57913,-0.72872 -1.63698,-0.88656 -2.45547,-1.32984c-1.74982,0.06619 -3.50134,0.08896 -5.25245,0.09061zM260.12512,25.40143c-0.14891,-0.31336 -0.24106,-0.70119 -0.24106,-1.18116c0,-2.5 2.5,-2.5 2.5,-2.5h2.299c2.2662,0 4.53247,0.03565 6.79801,0.09071c1.73596,1.08939 3.99713,1.61456 5.20788,3.26817c2.91299,3.97848 0.74046,6.266 -0.43114,9.87264c-1.91474,5.89432 -3.25054,10.68578 -7.41292,15.45848c-0.12575,0.14418 -5.32035,6.80936 -5.81916,6.87962c-6.05867,0.85336 -8.10341,-6.02698 -8.49582,-10.21844c-0.28905,-3.08743 -0.27928,-6.21464 0.0019,-9.30279c0.43013,-4.72403 3.05246,-8.54971 5.59331,-12.36724z" fill="#ffffff" stroke-width="0.5"/><path d="M279.46229,45.05722c1.38675,-2.08013 3.46688,-0.69338 3.46688,-0.69338l2.07612,1.40024c2.03423,0.83579 4.25875,1.31129 6.4576,1.35249c1.35657,1.36025 4.17699,2.16266 4.06971,4.08074c-0.10778,1.92712 -2.86911,2.61228 -4.50162,3.642c-1.23218,0.77721 -2.76571,0.97786 -4.01382,1.72922c-3.78346,2.27763 -10.80318,8.59953 -14.57593,1.78375c-0.3724,-0.67277 -0.38701,-6.83823 -0.10198,-8.28253c0.73423,-3.7205 2.62421,-10.14604 5.13641,-13.05691c0.79359,-0.91952 2.30784,-0.8952 3.23124,-1.68428c1.03758,-0.88666 1.37871,-2.47717 2.518,-3.22867c1.19743,-0.78985 2.71842,-0.99463 4.14275,-1.16489c5.41117,-0.64684 8.25273,2.22038 12.42089,4.99915c0,0 2.08013,1.38675 0.69338,3.46688c-1.38675,2.08013 -3.46688,0.69338 -3.46688,0.69338c-1.61358,-1.07572 -4.37745,-3.81192 -6.23472,-4.2854c-4.16643,-1.06217 -4.33163,1.17521 -6.86968,3.35832c-0.81159,0.69809 -2.17887,0.58936 -2.89944,1.38106c-0.90729,0.99685 -1.17966,2.42571 -1.69787,3.67004c-1.44975,3.48117 -2.7717,7.92701 -2.46372,11.77457c0.10432,1.30329 2.70969,-0.10888 3.85043,-0.74775c1.9428,-1.08806 3.65496,-2.71315 5.56908,-3.83788c-1.224,-0.32021 -2.42647,-0.76093 -3.59155,-1.21818l-2.52188,-1.6651c0,0 -2.08013,-1.38675 -0.69338,-3.46688z" fill="#ffffff" stroke-width="0.5"/><path d="M299.31402,76.87846c-2.08013,-1.38675 -0.69338,-3.46688 -0.69338,-3.46688l1.40024,-2.07612c2.38685,-6.00358 5.9199,-11.37808 8.32104,-17.39029c0,0 0.43198,-1.07994 1.44325,-1.47193c-0.00994,-0.03612 -0.01909,-0.07257 -0.02743,-0.10933l-0.75365,-3.0146l0.10822,-0.02705l-0.16413,-0.27383c0.03863,-4.24428 -0.8277,-5.52361 -3.8845,-8.50004c0,0 -1.76777,-1.76777 0,-3.53553c1.76777,-1.76777 3.53553,0 3.53553,0c2.24915,2.29713 3.736,4.11904 4.55062,6.42754c1.77729,-1.99545 4.37861,-3.49326 6.33623,-4.84289l1.72306,-1.63557c0,0 1.81868,-1.71535 3.53402,0.10333c1.71535,1.81868 -0.10333,3.53402 -0.10333,3.53402l-2.01635,1.89138c-3.09214,2.10245 -5.01484,4.01202 -6.8047,6.35438l-1.23304,3.69912c-0.22552,0.73331 -0.77927,1.32285 -1.48979,1.59716c0.21145,0.85307 -0.11163,1.66077 -0.11163,1.66077c-2.4722,6.17137 -6.0627,11.70769 -8.53831,17.86108l-1.6651,2.52188c0,0 -1.38675,2.08013 -3.46688,0.69338z" fill="#ffffff" stroke-width="0.5"/><path d="M10.42526,247.19969c-2.5,0 -2.5,-2.5 -2.5,-2.5v-0.64258c0.11247,-3.35664 -1.61276,-5.34063 -1.60593,-9.04767c0.00348,-1.88672 1.3987,-3.54825 1.62805,-5.42098c0.10332,-0.84362 -0.48455,-1.63326 -0.63076,-2.47052c-0.72134,-4.13054 -1.28941,-8.33922 -1.63824,-12.51574c0.0366,-3.18159 -0.29887,-4.50171 1.71469,-7.61273c1.76496,-2.72693 3.777,-1.97696 4.40262,-5.29432c0.34847,-1.84781 -1.02188,-3.63168 -1.27726,-5.49463c-0.57951,-4.22749 -3.10138,-9.57937 -2.57601,-13.80241c0.56395,-4.53317 4.68384,-7.1086 6.19465,-11.03473c0.94071,-2.44462 -1.03534,-8.50113 -1.5704,-10.83348c-0.73683,-3.21187 -2.34508,-6.16644 -3.27289,-9.32843c-0.6109,-2.08195 -0.37448,-7.01054 -0.35953,-8.82392c0.55098,-1.37212 0.85313,-2.87275 1.65295,-4.11637c0.55408,-0.86152 1.79832,-1.14318 2.30295,-2.03457c0.55476,-0.97993 -1.61298,-3.13245 -1.75814,-3.40646c-0.67375,-1.2718 -1.05748,-2.67937 -1.67167,-3.98099c-1.85994,-3.94168 -5.05452,-5.14098 -2.84987,-10.29367c0.7554,-1.76551 4.05196,-3.23157 5.62997,-3.97615c1.04987,-0.49538 2.11829,-0.95082 3.18667,-1.40489c0.2922,-0.12419 0.91049,-0.01227 0.89375,-0.32933c-0.08666,-1.64072 -2.11103,-2.52084 -3.08758,-3.84213c-2.62366,-3.54985 -7.56186,-7.31004 -2.19458,-11.64363c1.0951,-0.8842 2.80397,-0.24892 4.20595,-0.37337c0,0 2.5,0 2.5,2.5c0,2.5 -2.5,2.5 -2.5,2.5c-0.55524,-0.13143 -2.1217,-0.61451 -1.69552,-0.23513c2.48921,2.21591 8.32588,8.18803 7.68771,12.00705c-0.89323,5.34546 -8.08223,3.68433 -10.20968,7.14128c-0.89478,1.45396 0.48631,1.6076 1.13887,2.55531c1.45657,2.1154 2.14528,4.66979 3.33575,6.94559c0.4831,0.92353 1.48126,1.57956 1.76135,2.58348c1.61121,5.77499 -1.62408,5.83066 -3.41909,10.34952c0.00591,0.54886 -0.04193,5.55907 0.28305,6.59807c1.5567,4.97684 3.48811,9.28568 4.32764,14.55846c0.16307,1.02416 0.99786,6.75063 0.46781,8.33268c-1.18081,3.52443 -5.529,6.32116 -6.01442,10.1705c-0.22085,1.75129 0.75055,3.45122 1.21423,5.15439c0.97899,3.59607 1.25746,7.08712 1.95965,10.73335c0.21677,1.1256 0.91501,2.24744 0.68384,3.37018c-1.15408,5.60513 -6.192,6.45596 -6.09177,12.15368c0.33219,3.99641 0.98808,7.93292 1.57467,11.9024c0.19536,1.322 0.79196,2.62605 0.65441,3.95531c-0.1754,1.69502 -1.58976,3.15628 -1.58487,4.86034c0.00981,3.41977 1.53413,5.51874 1.60699,8.94464v0.64258c0,0 0,2.5 -2.5,2.5z" fill="#ff4d4d" stroke-width="0.5"/></g></g></svg>